HIERARCHY
ROOT hip
{
  OFFSET 0 0 0
  CHANNELS 6 Xposition Yposition Zposition Zrotation Yrotation Xrotation
  JOINT abdomen
  {
    OFFSET 0 20.6881 -0.73152
    CHANNELS 3 Zrotation Xrotation Yrotation
    JOINT chest
    {
      OFFSET 0 11.7043 -0.48768
      CHANNELS 3 Zrotation Xrotation Yrotation
      JOINT neck
      {
        OFFSET 0 22.1894 -2.19456
        CHANNELS 3 Zrotation Xrotation Yrotation
        JOINT head
        {
          OFFSET -0.24384 7.07133 1.2192
          CHANNELS 3 Zrotation Xrotation Yrotation
          JOINT leftEye
          {
            OFFSET 4.14528 8.04674 8.04672
            CHANNELS 3 Zrotation Xrotation Yrotation
            End Site
            {
              OFFSET 1 0 0
            }
          }
          JOINT rightEye
          {
            OFFSET -3.6576 8.04674 8.04672
            CHANNELS 3 Zrotation Xrotation Yrotation
            End Site
            {
              OFFSET 1 0 0
            }
          }
        }
      }
      JOINT rCollar
      {
        OFFSET -2.68224 19.2634 -4.8768
        CHANNELS 3 Zrotation Xrotation Yrotation
        JOINT rShldr
        {
          OFFSET -8.77824 -1.95073 1.46304
          CHANNELS 3 Zrotation Xrotation Yrotation
          JOINT rForeArm
          {
            OFFSET -28.1742 -1.7115 0.48768
            CHANNELS 3 Zrotation Xrotation Yrotation
            JOINT rHand
            {
              OFFSET -22.5879 0.773209 7.07136
              CHANNELS 3 Zrotation Xrotation Yrotation
              JOINT rThumb1
              {
                OFFSET -1.2192 -0.487915 3.41376
                CHANNELS 3 Zrotation Xrotation Yrotation
                JOINT rThumb2
                {
                  OFFSET -3.37035 -0.52449 3.41376
                  CHANNELS 3 Zrotation Xrotation Yrotation
                  End Site
                  {
                    OFFSET -1.78271 -1.18214 1.43049
                  }
                }
              }
              JOINT rIndex1
              {
                OFFSET -7.75947 0.938293 5.60832
                CHANNELS 3 Zrotation Xrotation Yrotation
                JOINT rIndex2
                {
                  OFFSET -2.54057 -0.884171 1.56538
                  CHANNELS 3 Zrotation Xrotation Yrotation
                  End Site
                  {
                    OFFSET -1.62519 -0.234802 1.16502
                  }
                }
              }
              JOINT rMid1
              {
                OFFSET -8.24714 1.18213 3.41376
                CHANNELS 3 Zrotation Xrotation Yrotation
                JOINT rMid2
                {
                  OFFSET -3.10165 -0.590103 1.0647
                  CHANNELS 3 Zrotation Xrotation Yrotation
                  End Site
                  {
                    OFFSET -2.48547 -0.328903 0.83742
                  }
                }
              }
              JOINT rRing1
              {
                OFFSET -8.82822 0.546677 1.51678
                CHANNELS 3 Zrotation Xrotation Yrotation
                JOINT rRing2
                {
                  OFFSET -2.60934 -0.819778 -0.0198488
                  CHANNELS 3 Zrotation Xrotation Yrotation
                  End Site
                  {
                    OFFSET -2.33842 -0.294052 0.168128
                  }
                }
              }
              JOINT rPinky1
              {
                OFFSET -8.27202 -0.0477905 -0.4584
                CHANNELS 3 Zrotation Xrotation Yrotation
                JOINT rPinky2
                {
                  OFFSET -1.82734 -0.647385 -0.700984
                  CHANNELS 3 Zrotation Xrotation Yrotation
                  End Site
                  {
                    OFFSET -1.69225 -0.51767 -0.607171
                  }
                }
              }
            }
          }
        }
      }
      JOINT lCollar
      {
        OFFSET 2.68224 19.2634 -4.8768
        CHANNELS 3 Zrotation Xrotation Yrotation
        JOINT lShldr
        {
          OFFSET 8.77824 -1.95073 1.46304
          CHANNELS 3 Zrotation Xrotation Yrotation
          JOINT lForeArm
          {
            OFFSET 28.1742 -1.7115 0.48768
            CHANNELS 3 Zrotation Xrotation Yrotation
            JOINT lHand
            {
              OFFSET 22.5879 0.773209 7.07136
              CHANNELS 3 Zrotation Xrotation Yrotation
              JOINT lThumb1
              {
                OFFSET 1.2192 -0.487915 3.41376
                CHANNELS 3 Zrotation Xrotation Yrotation
                JOINT lThumb2
                {
                  OFFSET 3.37035 -0.52449 3.41376
                  CHANNELS 3 Zrotation Xrotation Yrotation
                  End Site
                  {
                    OFFSET 1.78271 -1.18214 1.43049
                  }
                }
              }
              JOINT lIndex1
              {
                OFFSET 7.75947 0.938293 5.60832
                CHANNELS 3 Zrotation Xrotation Yrotation
                JOINT lIndex2
                {
                  OFFSET 2.54057 -0.884171 1.56538
                  CHANNELS 3 Zrotation Xrotation Yrotation
                  End Site
                  {
                    OFFSET 1.62519 -0.234802 1.16502
                  }
                }
              }
              JOINT lMid1
              {
                OFFSET 8.24714 1.18213 3.41376
                CHANNELS 3 Zrotation Xrotation Yrotation
                JOINT lMid2
                {
                  OFFSET 3.10165 -0.590103 1.0647
                  CHANNELS 3 Zrotation Xrotation Yrotation
                  End Site
                  {
                    OFFSET 2.48547 -0.328903 0.83742
                  }
                }
              }
              JOINT lRing1
              {
                OFFSET 8.82822 0.546677 1.51678
                CHANNELS 3 Zrotation Xrotation Yrotation
                JOINT lRing2
                {
                  OFFSET 2.60934 -0.819778 -0.0198488
                  CHANNELS 3 Zrotation Xrotation Yrotation
                  End Site
                  {
                    OFFSET 2.33842 -0.294052 0.168128
                  }
                }
              }
              JOINT lPinky1
              {
                OFFSET 8.27202 -0.0477905 -0.4584
                CHANNELS 3 Zrotation Xrotation Yrotation
                JOINT lPinky2
                {
                  OFFSET 1.82734 -0.647385 -0.700984
                  CHANNELS 3 Zrotation Xrotation Yrotation
                  End Site
                  {
                    OFFSET 1.69225 -0.51767 -0.607171
                  }
                }
              }
            }
          }
        }
      }
    }
  }
  JOINT rButtock
  {
    OFFSET -8.77824 4.35084 1.2192
    CHANNELS 3 Zrotation Xrotation Yrotation
    JOINT rThigh
    {
      OFFSET 0 -1.70687 -2.19456
      CHANNELS 3 Zrotation Xrotation Yrotation
      JOINT rShin
      {
        OFFSET 0 -36.8199 0.73152
        CHANNELS 3 Zrotation Xrotation Yrotation
        JOINT rFoot
        {
          OFFSET 0.73152 -45.1104 -5.12064
          CHANNELS 3 Zrotation Xrotation Yrotation
          End Site
          {
            OFFSET -1.1221 -3.69964 12.103
          }
        }
      }
    }
  }
  JOINT lButtock
  {
    OFFSET 8.77824 4.35084 1.2192
    CHANNELS 3 Zrotation Xrotation Yrotation
    JOINT lThigh
    {
      OFFSET 0 -1.70687 -2.19456
      CHANNELS 3 Zrotation Xrotation Yrotation
      JOINT lShin
      {
        OFFSET 0 -36.8199 0.73152
        CHANNELS 3 Zrotation Xrotation Yrotation
        JOINT lFoot
        {
          OFFSET -0.73152 -45.1104 -5.12064
          CHANNELS 3 Zrotation Xrotation Yrotation
          End Site
          {
            OFFSET 1.1221 -3.69964 12.103
          }
        }
      }
    }
  }
}
MOTION
Frames:	4
Frame Time:	0.03333
-11.5 62.462799999999994 -23.5473 178.790546 -33.614566 178.675808 -9.179752 18.790045 62.996047 -3.94263 -8.370299 -52.518931 3.819616 26.336746 172.100227 0.135112 38.291749 147.021222 0.521776 0.296512 59.21668 -14.327735 6.928625 -51.435195 -131.695367 71.339306 138.784827 -32.509839 -8.057707 23.659249 174.095032 -24.114795 -116.247567 -11.794305 49.955956 6.930926 -179.849165 -27.632898 84.264143 -76.999006 -16.040794 27.364935 1.134032 -55.501058 -13.342804 -24.111647 72.025907 28.473985 -2.053174 -38.188473 -11.349753 -46.07724 -85.836351 -96.456994 8.366827 26.209861 0.113528 -141.921005 59.050041 148.795564 22.339536 30.720533 17.861094 83.645782 24.633349 -106.331554 -17.899121 -47.373529 -14.61134 -94.341854 31.335681 56.57465 76.850324 -30.532649 -84.623174 176.346609 -77.201074 -150.317323 112.264885 37.061749 -78.664018 139.524494 -33.052492 -76.948196 -37.36407 -38.230419 -12.650196 12.588435 40.623108 16.448991 8.218392 8.964188 -21.722256 -14.233181 1.473607 32.934537 -15.300542 -7.471591 -11.468617 9.562885 45.645016 1.672717 -26.311059 -45.000624 -41.954024 -18.087131 58.996557 48.026552 -62.460255 21.556388 -39.642819 78.176848 -29.65416 -16.173894 -62.361652 43.332974 -4.344717 79.326806 53.458121 -2.114211 -178.7194 89.263961 -0.0 -123.760215 75.170125 -180.0 -50.388736 -35.583151 -113.084583 -168.420859 7.466419 95.597578
-11.3677 62.408699999999996 -24.1896 178.789807 -33.938933 179.113378 -7.070715 19.758343 2.122642 3.414386 -8.598753 8.712234 -0.081878 6.19699 10.873317 -4.713942 -17.502333 -51.892937 -5.637016 -3.023551 56.388499 -13.90662 5.406904 -42.330564 -89.220256 80.280645 94.538891 -77.278636 42.139904 55.294472 -6.574962 -34.568454 -108.277628 150.782905 -44.048428 136.298785 -109.58221 28.287295 72.163272 45.408346 -20.401186 17.711187 126.919119 -78.243327 95.878965 12.017588 -46.31662 -38.219627 -39.088124 53.613147 23.117374 -107.0387 34.627907 106.420645 -133.436128 -20.55708 -163.911608 -144.541597 -30.855936 -171.275806 15.476739 -6.124234 3.440434 -107.569725 81.684325 61.789467 50.221212 45.94725 -52.232938 173.16652 -34.913489 -96.657941 -88.908082 -74.040264 56.193657 152.259183 25.502772 -119.02439 174.341743 -30.666714 -96.470963 -113.976503 -58.558326 -86.354407 -14.638874 -23.998248 -9.01024 144.083793 -80.413212 -159.562076 49.316486 37.832858 -47.001472 136.364616 -73.387048 -163.587545 134.559418 -7.112887 -168.586467 141.322729 -29.101665 -172.840055 -9.929875 -8.774264 -48.737324 147.621097 4.362828 79.861345 -20.033155 1.930834 -9.878256 5.233371 -56.825918 -180.0 -47.676148 -72.73707 -13.654597 -110.562299 58.629141 -172.061523 0.900716 -13.00875 -0.0 11.489907 5.372293 -99.322652 -44.512384 -19.593227 63.09407 -8.1536 -64.724841 68.837957
-11.2747 62.576699999999995 -25.052999999999997 178.967617 -40.296881 177.571359 -6.263826 20.744683 -0.0 3.216308 -8.05641 9.793428 9.254732 10.532773 71.726564 -26.054815 4.488407 -115.439281 3.34455 1.745971 55.122516 -38.816438 23.526948 -61.172539 -153.181932 0.802155 172.383886 117.657994 64.987346 -132.166477 170.72937 -25.788922 67.817592 157.718108 -23.436046 144.256577 157.197365 -41.933076 74.733103 -4.558539 -60.242577 13.986113 -8.761884 -26.88797 -7.971084 -51.797881 58.302536 52.871448 -170.299254 -10.009163 144.848773 -12.552711 -1.454221 3.494509 -143.919592 8.190992 -163.401311 -59.374928 -57.056483 -76.797546 17.509483 -2.791128 -4.483891 -93.815115 -51.701008 -8.960061 133.387713 32.378156 -127.169898 103.730583 20.631909 -70.467742 -2.859238 -24.917291 141.662923 157.949388 13.377458 -126.689484 177.034486 -33.52963 -98.14313 126.659706 24.035279 -58.550776 136.926566 -7.509733 -104.206283 173.585563 -29.177398 -80.003949 150.758161 -3.075679 -122.814645 -13.499565 3.58895 -40.281332 135.525958 10.414777 -162.897219 -21.127109 0.491195 -0.166315 -36.999502 -57.972488 -46.784285 177.375981 -35.067683 113.680312 -150.012925 68.399816 -31.825116 151.765607 15.720738 -116.775055 -65.016204 -25.186056 39.80725 38.364314 39.602093 27.544065 -86.888148 76.638437 -79.876929 177.814538 83.873274 -164.73619 -5.768139 -50.454434 63.138222 112.688758 -31.268728 -169.558623
-11.2311 62.707 -25.8645 178.780142 -39.763679 177.084303 -8.276874 20.694464 51.178294 -3.081275 -8.794218 -41.889017 8.732839 10.704541 62.507864 -26.038402 0.279475 -106.998031 8.821828 5.387634 62.762939 -149.011708 -22.91242 -72.337026 -149.89518 -31.369893 179.673008 -86.359343 -54.567098 -93.925067 4.118356 8.349648 -103.218462 150.611004 -31.607649 139.498007 178.069055 -32.68171 83.914402 148.811118 -30.64083 77.526379 162.267475 -68.826819 121.20797 -169.985546 -52.280469 126.51167 -107.680817 64.980137 91.113082 -161.575039 9.240086 124.16673 1.309073 0.97167 -19.417401 -36.814834 47.550659 59.503612 -137.542271 65.405861 -154.787003 -80.949234 43.353485 -124.569693 -90.075874 -77.407497 -72.341915 67.042346 -24.258345 73.38766 176.115228 -10.095277 73.443613 17.708339 -26.486556 19.834818 163.613582 -17.848571 -97.780527 97.577224 -1.875886 -25.153831 15.429302 23.12464 -31.579648 39.765104 80.697148 -31.772213 -96.835664 -59.470764 -57.619899 -16.544678 -74.547481 -41.085075 -13.605518 -15.627564 -7.811733 168.295044 -26.11252 179.073948 62.564731 45.855364 -110.393136 106.673921 50.165166 146.604472 -0.64845 3.626286 10.145497 -46.113344 -47.113857 40.190018 73.177552 -6.885553 31.164607 -122.748101 -22.107918 140.707546 -177.425721 89.735814 -0.0 -102.628579 77.275921 102.328044 6.233764 -51.5178 -68.44533 -2.409001 -49.147318 -87.440485
